ply
format ascii 1.0
element vertex 300
property float x
property float y
property float z
property uchar red
property uchar green
property uchar blue
end_header
-11.650251 -21.310652 2.967968 230 70 70
-11.520280 -21.455883 2.780821 230 70 70
-11.242004 -21.287010 2.819666 230 70 70
-10.957702 -21.053931 2.931535 230 70 70
-10.667462 -20.781452 2.947388 230 70 70
-10.383377 -20.549076 3.057632 230 70 70
-10.102003 -20.300117 3.169831 230 70 70
-9.821521 -20.007434 3.241982 230 70 70
-9.525633 -19.814081 3.288644 230 70 70
-9.222675 -19.552531 3.302831 230 70 70
-8.882075 -19.339902 3.315443 230 70 70
-8.580694 -19.010152 3.343424 230 70 70
-8.261481 -18.704686 3.370287 230 70 70
-7.951000 -18.387017 3.397361 230 70 70
-7.657509 -18.045746 3.425084 230 70 70
-7.362974 -17.705684 3.452534 230 70 70
-7.052131 -17.387851 3.478927 230 70 70
-6.774501 -17.024053 3.506800 230 70 70
-6.487776 -16.672554 3.533978 230 70 70
-6.185583 -16.342126 3.560158 230 70 70
-5.874264 -16.024051 3.585655 230 70 70
-5.678749 -15.682075 3.539213 230 70 70
-5.367247 -15.363925 3.564238 230 70 70
-5.109944 -15.005256 3.572172 230 70 70
-4.893374 -14.657508 3.543626 230 70 70
-4.581575 -14.339204 3.567962 230 70 70
-4.385830 -13.997023 3.520365 230 70 70
-4.097818 -13.645508 3.545489 230 70 70
-3.795207 -13.313951 3.569626 230 70 70
-3.593454 -12.979753 3.521030 230 70 70
-3.287049 -12.653109 3.544509 230 70 70
-3.088829 -12.313851 3.495632 230 70 70
-2.861613 -12.014770 3.444909 230 70 70
-2.665593 -11.672379 3.395670 230 70 70
-2.353018 -11.353763 3.417862 230 70 70
-2.123447 -11.057913 3.366180 230 70 70
-1.844165 -10.692632 3.389865 230 70 70
-1.614502 -10.396807 3.337670 230 70 70
-1.335055 -10.031380 3.360917 230 70 70
-1.101493 -9.734531 3.311580 230 70 70
-0.809107 -9.393179 3.329996 230 70 70
-0.595848 -9.074242 3.277793 230 70 70
-0.282571 -8.755417 3.298047 230 70 70
-0.086143 -8.412787 3.246424 230 70 70
0.250520 -8.126482 3.264670 230 70 70
0.461962 -7.804816 3.211554 230 70 70
0.699907 -7.499211 3.168349 230 70 70
1.000999 -7.183849 3.176220 230 70 70
1.227433 -6.883274 3.121237 230 70 70
1.438989 -6.561710 3.067044 230 70 70
1.691250 -6.297842 3.009493 230 70 70
1.993300 -5.962053 3.028393 230 70 70
2.235383 -5.683856 2.970973 230 70 70
2.463853 -5.386411 2.914287 230 70 70
2.695713 -5.093888 2.856993 230 70 70
3.012646 -4.788925 2.868026 230 70 70
3.240207 -4.480243 2.816186 230 70 70
3.470442 -4.185522 2.758108 230 70 70
3.785181 -3.867073 2.774255 230 70 70
4.044131 -3.613780 2.712903 230 70 70
4.340332 -3.268374 2.730288 230 70 70
4.599316 -3.015341 2.668219 230 70 70
4.941628 -2.736431 2.680625 230 70 70
5.239260 -2.392578 2.697220 230 70 70
5.498300 -2.139965 2.634044 230 70 70
5.841984 -1.862911 2.645401 230 70 70
6.185763 -1.585942 2.656436 230 70 70
6.414259 -1.289138 2.595354 230 70 70
6.741795 -0.988314 2.607563 230 70 70
7.085810 -0.711568 2.617658 230 70 70
7.413424 -0.439768 2.612817 230 70 70
7.689025 -0.183468 2.561467 230 70 70
8.006527 0.132497 2.573744 230 70 70
8.330766 0.438654 2.584970 230 70 70
8.675196 0.714993 2.593474 230 70 70
9.019717 0.991240 2.601652 230 70 70
9.364328 1.267397 2.609505 230 70 70
9.720239 1.464485 2.605921 230 70 70
10.085586 1.595314 2.592741 230 70 70
10.396664 1.849099 2.592692 230 70 70
-7.972740 -19.422958 -17.870085 255 255 255
-7.839484 -19.280356 -18.153147 255 255 255
-7.731467 -19.021400 -18.362041 255 255 255
-7.740317 -18.764512 -18.622017 255 255 255
-7.773145 -18.566776 -18.984188 255 255 255
-7.929526 -18.535381 -19.531289 255 255 255
-7.926287 -18.430863 -20.040653 255 255 255
-7.891361 -18.373497 -20.554014 255 255 255
-7.888208 -18.269397 -21.062844 255 255 255
-7.885097 -18.165515 -21.571416 255 255 255
-7.882028 -18.061851 -22.079729 255 255 255
-7.879000 -17.958404 -22.587783 255 255 255
-7.876015 -17.855175 -23.095579 255 255 255
-7.873070 -17.752164 -23.603116 255 255 255
-7.870168 -17.649369 -24.110394 255 255 255
-7.867307 -17.546792 -24.617413 255 255 255
-7.917315 -17.406131 -25.047856 255 255 255
-8.026093 -17.420980 -25.672237 255 255 255
-8.023254 -17.318975 -26.178291 255 255 255
-8.041929 -17.146044 -26.574959 255 255 255
-8.060648 -16.973328 -26.971565 255 255 255
-8.079411 -16.800827 -27.368108 255 255 255
-8.142713 -16.581522 -27.679877 255 255 255
-8.280942 -16.534888 -28.201681 255 255 255
-8.299763 -16.362991 -28.597891 255 255 255
-8.318629 -16.191308 -28.994036 255 255 255
-8.342757 -16.002626 -29.363876 255 255 255
-8.520029 -15.926850 -29.826259 255 255 255
-8.560564 -15.684660 -30.113837 255 255 255
-8.576273 -15.524539 -30.526016 255 255 255
-8.617083 -15.282261 -30.812952 255 255 255
-8.747897 -15.135017 -31.193760 255 255 255
-8.840446 -14.947624 -31.534592 255 255 255
-8.881407 -14.705956 -31.821664 255 255 255
-8.987406 -14.533105 -32.176429 255 255 255
-9.104790 -14.372483 -32.542960 255 255 255
-9.148122 -14.124185 -32.819221 255 255 255
-9.229251 -13.926246 -33.148919 255 255 255
-9.393084 -13.721800 -33.434412 255 255 255
-9.441518 -13.458129 -33.686826 255 255 255
-9.482883 -13.217868 -33.974374 255 255 255
-9.642525 -12.969698 -34.200895 255 255 255
-9.737543 -12.786638 -34.544049 255 255 255
-9.810229 -12.446417 -34.680678 255 255 255
-9.883073 -12.106358 -34.817603 255 255 255
-9.955354 -11.768783 -34.958311 255 255 255
-10.104319 -11.640631 -35.353180 255 255 255
-10.211488 -11.337307 -35.525894 255 255 255
-10.284857 -10.997997 -35.663816 255 255 255
-10.358384 -10.658853 -35.802035 255 255 255
-10.486151 -10.377638 -35.996353 255 255 255
-10.645933 -10.130734 -36.223784 255 255 255
-10.719300 -9.760591 -36.278554 255 255 255
-10.920933 -9.512388 -36.424417 255 255 255
-11.006656 -9.186405 -36.575749 255 255 255
-11.081029 -8.848271 -36.715511 255 255 255
-11.160478 -8.515588 -36.860637 255 255 255
-11.368540 -8.243261 -36.929688 255 255 255
-11.443338 -7.905576 -37.070211 255 255 255
-11.518292 -7.568063 -37.211030 255 255 255
-11.593402 -7.230724 -37.352146 255 255 255
-11.790204 -6.946191 -37.409800 255 255 255
-11.882180 -6.627031 -37.568464 255 255 255
-11.957713 -6.290150 -37.710339 255 255 255
-12.033401 -5.953445 -37.852511 255 255 255
-12.109245 -5.616918 -37.994978 255 255 255
-12.228521 -5.314991 -38.149376 255 255 255
-12.399094 -5.001527 -38.179368 255 255 255
-12.474198 -4.584417 -38.111257 255 255 255
-12.548520 -4.100258 -37.869006 255 255 255
-12.623974 -3.683171 -37.802152 255 255 255
-12.698117 -3.160117 -37.460631 255 255 255
-12.773131 -2.685847 -37.246862 255 255 255
-12.849083 -2.266408 -37.175930 255 255 255
-12.925222 -1.848106 -37.108406 255 255 255
-13.052515 -1.428304 -36.944817 255 255 255
-13.215634 -1.047251 -36.817979 255 255 255
-13.290808 -0.512115 -36.451171 255 255 255
-13.366907 -0.034665 -36.233981 255 255 255
-13.442457 0.501671 -35.866561 255 255 255
12.203091 0.721409 -21.018635 70 200 120
12.649684 0.947641 -20.500493 70 200 120
13.060470 1.360439 -19.809477 70 200 120
13.498902 1.666109 -19.277433 70 200 120
13.901657 2.158980 -18.571933 70 200 120
14.323681 2.577126 -17.977410 70 200 120
14.736029 3.038416 -17.318728 70 200 120
15.150340 3.495371 -16.666430 70 200 120
15.555571 3.994318 -15.951741 70 200 120
15.979899 4.416783 -15.350526 70 200 120
16.303592 4.890385 -14.707780 70 200 120
16.640448 5.368175 -14.053651 70 200 120
17.034599 5.871983 -13.336911 70 200 120
17.274735 6.325646 -12.758391 70 200 120
17.599539 6.804304 -12.108339 70 200 120
17.860580 7.349255 -11.379078 70 200 120
18.189169 7.744898 -10.858170 70 200 120
18.500292 8.220499 -10.218874 70 200 120
18.800214 8.778708 -9.454936 70 200 120
19.127131 9.260035 -8.801238 70 200 120
19.454490 9.741879 -8.146821 70 200 120
19.782290 10.224237 -7.491690 70 200 120
20.110532 10.707107 -6.835847 70 200 120
20.462841 11.284967 -6.023139 70 200 120
20.837965 11.783620 -5.325527 70 200 120
21.163848 12.287854 -4.638255 70 200 120
21.568353 12.864196 -3.809347 70 200 120
21.969920 13.461373 -2.949675 70 200 120
22.372530 14.060066 -2.087777 70 200 120
22.776187 14.660281 -1.223644 70 200 120
23.180893 15.262023 -0.357270 70 200 120
23.586653 15.865295 0.511353 70 200 120
24.000471 16.422065 1.377359 70 200 120
24.412791 16.998157 2.247502 70 200 120
24.801777 17.638742 3.127412 70 200 120
25.202998 18.244371 4.005659 70 200 120
25.622126 18.801254 4.880531 70 200 120
26.037216 19.394759 5.761247 70 200 120
26.426941 20.003162 6.647982 70 200 120
26.853043 20.540337 7.527710 70 200 120
27.256749 21.072240 8.411578 70 200 120
27.687881 21.594007 9.294413 70 200 120
28.102693 22.068350 10.177065 70 200 120
28.519246 22.539249 11.061450 70 200 120
28.936870 23.011299 11.948036 70 200 120
29.258871 23.298597 12.715768 70 200 120
29.563926 23.552548 13.462739 70 200 120
29.879104 23.760506 14.196031 70 200 120
30.162682 24.036360 14.943644 70 200 120
30.402235 24.162285 15.609274 70 200 120
30.732576 24.410162 16.368271 70 200 120
31.034280 24.705525 17.134347 70 200 120
31.263864 24.933458 17.839117 70 200 120
31.566548 25.182116 18.587528 70 200 120
31.822244 25.506334 19.345467 70 200 120
32.125767 25.755241 20.095665 70 200 120
32.190981 25.810352 20.634277 70 200 120
32.278121 25.767719 21.139546 70 200 120
32.318045 25.797743 21.651778 70 200 120
32.330935 25.713357 22.094864 70 200 120
32.406168 25.740002 22.625633 70 200 120
32.584756 25.913756 23.284633 70 200 120
32.644131 25.962056 23.816149 70 200 120
32.822224 26.134152 24.474015 70 200 120
33.077546 26.453802 25.231896 70 200 120
33.320201 26.717446 25.960626 70 200 120
33.629595 27.003465 26.733309 70 200 120
33.768678 27.169398 27.223281 70 200 120
33.787120 27.208629 27.546911 70 200 120
33.740661 27.192652 27.739691 70 200 120
-18.205428 -48.510727 -25.412640 255 255 255
-17.821858 -48.300248 -24.701355 255 255 255
-17.240248 -47.795378 -23.768349 255 255 255
-16.754850 -47.439628 -22.945149 255 255 255
-16.312569 -47.060558 -22.257834 255 255 255
-15.840923 -46.681828 -21.431775 255 255 255
-15.281831 -46.132687 -20.488270 255 255 255
-14.837946 -45.753980 -19.801717 255 255 255
-14.306360 -45.204426 -18.997135 255 255 255
-13.851741 -44.825838 -18.264874 255 255 255
-13.308948 -44.275234 -17.414289 255 255 255
-12.765086 -43.723951 -16.562766 255 255 255
-12.330517 -43.346949 -15.933149 255 255 255
-11.895873 -42.970738 -15.304864 255 255 255
-11.419056 -42.522559 -14.603420 255 255 255
-10.914622 -42.043695 -13.826260 255 255 255
-10.472142 -41.668467 -13.167850 255 255 255
-10.021073 -41.292962 -12.471801 255 255 255
-9.506270 -40.781807 -11.710652 255 255 255
-9.036221 -40.367947 -10.996884 255 255 255
-8.498095 -39.817054 -10.199533 255 255 255
-8.083758 -39.510785 -9.570854 255 255 255
-7.715786 -39.297883 -9.004345 255 255 255
-7.283878 -38.960182 -8.352705 255 255 255
-6.843307 -38.621848 -7.663778 255 255 255
-6.320078 -38.154049 -6.808067 255 255 255
-5.949811 -37.939648 -6.245831 255 255 255
-5.399102 -37.388703 -5.409920 255 255 255
-4.937081 -37.017776 -4.687709 255 255 255
-4.499966 -36.652750 -4.077588 255 255 255
-3.943730 -36.100988 -3.225987 255 255 255
-3.412179 -35.554593 -2.486262 255 255 255
-2.876391 -34.817619 -1.589260 255 255 255
-2.335478 -34.109534 -0.697485 255 255 255
-1.833583 -33.285022 0.112454 255 255 255
-1.306347 -32.431772 1.043709 255 255 255
-0.816218 -31.551736 1.730115 255 255 255
-0.402904 -30.637813 2.500313 255 255 255
0.062973 -29.708576 3.320196 255 255 255
0.350961 -28.814306 4.011234 255 255 255
0.627040 -27.919221 4.753893 255 255 255
0.812859 -27.041127 5.439563 255 255 255
0.930371 -26.177675 5.975632 255 255 255
0.924401 -25.456760 6.463056 255 255 255
1.041937 -24.590313 7.000068 255 255 255
1.171044 -23.718908 7.587153 255 255 255
1.179055 -22.971567 8.054159 255 255 255
1.115908 -22.334767 8.234862 255 255 255
1.233428 -21.462649 8.773321 255 255 255
1.199411 -20.743342 9.144548 255 255 255
1.165139 -20.023234 9.515587 255 255 255
1.289472 -19.144959 10.085093 255 255 255
1.426902 -18.261173 10.711542 255 255 255
1.544525 -17.381410 11.252347 255 255 255
1.804165 -16.463627 11.998997 255 255 255
2.043838 -15.549478 12.658234 255 255 255
2.280880 -14.633932 13.305219 255 255 255
2.465164 -13.729564 13.907272 255 255 255
2.654657 -12.821033 14.573932 255 255 255
2.930294 -11.887277 15.385861 255 255 255
3.165026 -10.962081 16.140908 255 255 255
3.343679 -10.049739 16.823458 255 255 255
3.628125 -9.106408 17.671266 255 255 255
3.883683 -8.169703 18.393155 255 255 255
4.175196 -7.219363 19.269556 255 255 255
4.417229 -6.282268 19.931103 255 255 255
4.659824 -5.342765 20.594219 255 255 255
4.902982 -4.400844 21.258909 255 255 255
5.245357 -3.429139 22.013632 255 255 255
5.512983 -2.475661 22.702620 255 255 255
